{
  "accessors": [
    {
      "bufferView": 2,
      "componentType": 5126,
      "count": 33656,
      "max": [
        0.8031123876571655,
        2.28487491607666,
        1.9178297519683838
      ],
      "min": [
        -0.8495035767555237,
        -1.3926455974578857,
        -1.4204299449920654
      ],
      "type": "VEC3"
    },
    {
      "bufferView": 2,
      "byteOffset": 403872,
      "componentType": 5126,
      "count": 33656,
      "max": [
        0.999758243560791,
        0.9999850988388062,
        1.0
      ],
      "min": [
        -0.9999075531959534,
        -0.9999976754188538,
        -1.0
      ],
      "type": "VEC3"
    },
    {
      "bufferView": 3,
      "componentType": 5126,
      "count": 33656,
      "max": [
        1.0,
        0.9999697208404541,
        0.9999997615814209,
        1.0
      ],
      "min": [
        -0.9999999403953552,
        -0.9998620748519897,
        -0.9999831318855286,
        -1.0
      ],
      "type": "VEC4"
    },
    {
      "bufferView": 1,
      "componentType": 5126,
      "count": 33656,
      "max": [
        0.9961263537406921,
        0.9923231601715088
      ],
      "min": [
        0.0038735978305339813,
        0.003873576642945409
      ],
      "type": "VEC2"
    },
    {
      "bufferView": 1,
      "byteOffset": 269248,
      "componentType": 5126,
      "count": 33656,
      "max": [
        0.9961263537406921,
        0.9923231601715088
      ],
      "min": [
        0.0038735978305339813,
        0.003873576642945409
      ],
      "type": "VEC2"
    },
    {
      "bufferView": 1,
      "byteOffset": 538496,
      "componentType": 5126,
      "count": 33656,
      "max": [
        0.9961263537406921,
        0.9923231601715088
      ],
      "min": [
        0.0038735978305339813,
        0.003873576642945409
      ],
      "type": "VEC2"
    },
    {
      "bufferView": 0,
      "componentType": 5125,
      "count": 171648,
      "type": "SCALAR"
    }
  ],
  "asset": {
    "extras": {
      "author": "Chizuko V (https://sketchfab.com/chizuk0)",
      "license": "CC-BY-4.0 (http://creativecommons.org/licenses/by/4.0/)",
      "source": "https://sketchfab.com/3d-models/sony-headphone-wh-1000xm4-f90f76c75d8143eb97eb49844050aa26",
      "title": "SONY headphone WH-1000XM4"
    },
    "generator": "Sketchfab-15.61.0",
    "version": "2.0"
  },
  "bufferViews": [
    {
      "buffer": 0,
      "byteLength": 686592,
      "name": "floatBufferViews",
      "target": 34963
    },
    {
      "buffer": 0,
      "byteLength": 807744,
      "byteOffset": 686592,
      "byteStride": 8,
      "name": "floatBufferViews",
      "target": 34962
    },
    {
      "buffer": 0,
      "byteLength": 807744,
      "byteOffset": 1494336,
      "byteStride": 12,
      "name": "floatBufferViews",
      "target": 34962
    },
    {
      "buffer": 0,
      "byteLength": 538496,
      "byteOffset": 2302080,
      "byteStride": 16,
      "name": "floatBufferViews",
      "target": 34962
    }
  ],
  "buffers": [
    {
      "byteLength": 2840576,
      "uri": "scene.bin"
    }
  ],
  "extensionsUsed": [
    "KHR_materials_specular"
  ],
  "images": [
    {
      "uri": "textures/baked_baseColor.png"
    },
    {
      "uri": "textures/baked_metallicRoughness.png"
    },
    {
      "uri": "textures/baked_normal.png"
    },
    {
      "uri": "textures/baked_specularf0.png"
    }
  ],
  "materials": [
    {
      "extensions": {
        "KHR_materials_specular": {
          "specularColorFactor": [
            1.0,
            1.0,
            1.0
          ],
          "specularFactor": 0.7,
          "specularTexture": {
            "index": 3
          }
        }
      },
      "name": "baked",
      "normalTexture": {
        "index": 2
      },
      "occlusionTexture": {
        "index": 1
      },
      "pbrMetallicRoughness": {
        "baseColorTexture": {
          "index": 0
        },
        "metallicRoughnessTexture": {
          "index": 1
        },
        "roughnessFactor": 0.9
      }
    }
  ],
  "meshes": [
    {
      "name": "bake.001_baked_0",
      "primitives": [
        {
          "attributes": {
            "NORMAL": 1,
            "POSITION": 0,
            "TANGENT": 2,
            "TEXCOORD_0": 3,
            "TEXCOORD_1": 4,
            "TEXCOORD_2": 5
          },
          "indices": 6,
          "material": 0,
          "mode": 4
        }
      ]
    }
  ],
  "nodes": [
    {
      "children": [
        1
      ],
      "matrix": [
        1.0,
        0.0,
        0.0,
        0.0,
        0.0,
        2.220446049250313e-16,
        -1.0,
        0.0,
        0.0,
        1.0,
        2.220446049250313e-16,
        0.0,
        0.0,
        0.0,
        0.0,
        1.0
      ],
      "name": "Sketchfab_model"
    },
    {
      "children": [
        2
      ],
      "matrix": [
        0.009999999776482582,
        0.0,
        0.0,
        0.0,
        0.0,
        0.0,
        0.009999999776482582,
        0.0,
        0.0,
        -0.009999999776482582,
        0.0,
        0.0,
        0.0,
        0.0,
        0.0,
        1.0
      ],
      "name": "0ff9502ff974461f9dba5955555966ba.fbx"
    },
    {
      "children": [
        3
      ],
      "name": "RootNode"
    },
    {
      "children": [
        4
      ],
      "matrix": [
        100.0,
        1.0766717848866174e-14,
        -2.7849880822904847e-15,
        0.0,
        -1.0766717050302811e-14,
        87.45752050251765,
        -48.48898954970814,
        0.0,
        -2.7849911695214065e-15,
        48.48898954970814,
        87.45752050251765,
        0.0,
        0.0,
        0.0,
        0.0,
        1.0
      ],
      "name": "bake.001"
    },
    {
      "mesh": 0,
      "name": "bake.001_baked_0"
    }
  ],
  "samplers": [
    {
      "magFilter": 9729,
      "minFilter": 9987,
      "wrapS": 10497,
      "wrapT": 10497
    }
  ],
  "scene": 0,
  "scenes": [
    {
      "name": "Sketchfab_Scene",
      "nodes": [
        0
      ]
    }
  ],
  "textures": [
    {
      "sampler": 0,
      "source": 0
    },
    {
      "sampler": 0,
      "source": 1
    },
    {
      "sampler": 0,
      "source": 2
    },
    {
      "sampler": 0,
      "source": 3
    }
  ]
}
